<svg xmlns="http://www.w3.org/2000/svg" xmlns:xlink="http://www.w3.org/1999/xlink" version="1.1" x="0px" y="0px" viewBox="0 0 90 112.5" style="enable-background:new 0 0 90 90;" xml:space="preserve"><path d="M69.52511,39.24052c-0.77572-7.17157-5.0653-13.37733-11.21456-17.09669c-0.01028-0.24659-0.03082-0.49831-0.07706-0.72435  c-0.11302-1.03258-0.40584-2.12681-0.94011-3.4779c-0.51886-1.18156-1.19698-2.28607-2.02407-3.30324  c-0.8836-1.04799-1.92646-1.96756-3.09775-2.71759c-2.41963-1.5874-5.54306-2.32716-8.59458-2.01379  c-3.1748,0.32878-6.23145,1.88022-8.38909,4.24335c-1.99838,2.14222-3.24159,5.02934-3.48304,7.98325  c-6.1544,3.71935-10.44912,9.93026-11.22997,17.10696c-3.99162,1.62336-6.63729,5.51224-6.63729,9.86861v17.08641  c0,4.81872,3.17994,8.97473,7.7829,10.25904c1.31513,2.21414,3.72963,3.70908,6.49345,3.70908h33.77212  c2.76383,0,5.17833-1.49493,6.49859-3.71421c4.59782-1.28431,7.77776-5.44032,7.77776-10.25391V49.10913  C76.16241,44.7579,73.51674,40.86902,69.52511,39.24052z M15.64076,54.06656v-4.95742c0-3.31865,1.8494-6.31365,4.71597-7.82913  c0,0.10788-0.01027,0.21576-0.01027,0.32365l0.0822,12.46291H15.64076z M39.30282,17.94673  c1.25348-1.37678,3.02583-2.27579,4.84954-2.46587c1.82372-0.17467,3.59092,0.23631,4.98824,1.16101  c0.69353,0.44694,1.30999,0.98121,1.8083,1.57713c0.29282,0.35961,0.53941,0.73976,0.76545,1.13019  c-2.13708-0.57023-4.38719-0.8836-6.71435-0.8836c-2.3323,0-4.58754,0.31337-6.72463,0.8836  C38.56306,18.84574,38.90725,18.36798,39.30282,17.94673z M51.46777,53.01342h-1.8083c0-1.69015-1.37677-3.06179-3.06692-3.06179  h-3.18508c-1.69528,0-3.06692,1.37164-3.06692,3.06179h-1.8083c0-2.68677,2.18846-4.87009,4.87523-4.87009h3.18508  C49.27931,48.14333,51.46777,50.32666,51.46777,53.01342z M54.55524,73.34142H35.43962v-1.8083h19.11561V73.34142z   M67.64489,72.60166c0,2.67136-1.83399,4.91633-4.305,5.56361v-2.17818c0-6.48318-5.27079-11.75397-11.74883-11.75397H38.4038  c-6.47804,0-11.7437,5.27079-11.7437,11.75397v2.17818c-2.471-0.64729-4.29986-2.89739-4.29986-5.56875l-0.20549-30.99802  c0-4.75193,1.67474-9.1494,4.50535-12.69408v18.37072c0,6.47804,5.26566,11.74883,11.74883,11.74883h13.18212  c6.47804,0,11.74883-5.27079,11.74883-11.74883V28.89929c2.82547,3.54982,4.50534,7.94215,4.50534,12.69408L67.64489,72.60166z   M74.3541,54.06656h-4.78275l0.08219-12.46804c0-0.10788-0.01028-0.21063-0.01028-0.31851  c2.86658,1.51548,4.71084,4.51562,4.71084,7.82913V54.06656z"/><text x="0" y="105" fill="#000000" font-size="5px" font-weight="bold" font-family="'Helvetica Neue', Helvetica, Arial-Unicode, Arial, Sans-serif">Created by iconcheese</text><text x="0" y="110" fill="#000000" font-size="5px" font-weight="bold" font-family="'Helvetica Neue', Helvetica, Arial-Unicode, Arial, Sans-serif">from the Noun Project</text></svg>