<svg xmlns="http://www.w3.org/2000/svg" xmlns:xlink="http://www.w3.org/1999/xlink" viewBox="0 0 253.54 181.84"><defs><style>.cls-1{fill:#231f20;}.cls-2{fill:#f15a29;}.cls-10,.cls-11,.cls-12,.cls-13,.cls-14,.cls-15,.cls-16,.cls-2,.cls-3,.cls-4,.cls-5,.cls-6,.cls-7,.cls-8,.cls-9{stroke:#231f20;stroke-miterlimit:10;}.cls-10,.cls-3,.cls-4,.cls-9{fill:none;}.cls-3{stroke-width:1.06px;}.cls-4{stroke-width:1.1px;}.cls-5{fill:#603913;}.cls-5,.cls-6,.cls-7{stroke-width:0.88px;}.cls-6{fill:url(#radial-gradient);}.cls-7{fill:url(#radial-gradient-2);}.cls-12,.cls-14,.cls-8{stroke-width:0.82px;}.cls-8{fill:url(#radial-gradient-3);}.cls-9{stroke-width:0.87px;}.cls-10{stroke-width:0.9px;}.cls-11{fill:url(#Orange_Yellow);}.cls-12{fill:url(#radial-gradient-4);}.cls-13{fill:url(#Orange_Yellow-2);}.cls-14{fill:url(#radial-gradient-5);}.cls-15{fill:url(#Orange_Yellow-3);}.cls-16{fill:#bcbec0;stroke-width:1.3px;opacity:0.6;}</style><radialGradient id="radial-gradient" cx="137.1" cy="92.28" r="34.4" gradientTransform="translate(-43.93 -5.12) scale(0.48 1.13)" gradientUnits="userSpaceOnUse"><stop offset="0" stop-color="#3c2415"/><stop offset="1" stop-color="#603913"/></radialGradient><radialGradient id="radial-gradient-2" cx="157.65" cy="78.08" r="51.86" gradientTransform="translate(-43.93 -5.12) scale(0.48 1.13)" gradientUnits="userSpaceOnUse"><stop offset="0.23" stop-color="#603913"/><stop offset="0.65" stop-color="#3c2415"/><stop offset="0.93" stop-color="#3c2415"/></radialGradient><radialGradient id="radial-gradient-3" cx="112.71" cy="105.37" r="24.95" gradientTransform="translate(18.82 200) rotate(-66.62)" gradientUnits="userSpaceOnUse"><stop offset="0" stop-color="#fff33b"/><stop offset="0.04" stop-color="#fee72e"/><stop offset="0.12" stop-color="#fed51b"/><stop offset="0.2" stop-color="#fdca10"/><stop offset="0.28" stop-color="#fdc70c"/><stop offset="0.67" stop-color="#f3903f"/><stop offset="0.89" stop-color="#ed683c"/><stop offset="1" stop-color="#e93e3a"/></radialGradient><linearGradient id="Orange_Yellow" x1="91.46" y1="72.78" x2="152.18" y2="72.78" gradientTransform="translate(18.82 200) rotate(-66.62)" xlink:href="#radial-gradient-3"/><radialGradient id="radial-gradient-4" cx="212.5" cy="84.74" r="24.95" xlink:href="#radial-gradient-3"/><linearGradient id="Orange_Yellow-2" x1="143.06" y1="75" x2="203.78" y2="75" gradientTransform="translate(18.82 200) rotate(-66.62)" xlink:href="#radial-gradient-3"/><radialGradient id="radial-gradient-5" cx="132.45" cy="137.09" r="24.95" xlink:href="#radial-gradient-3"/><linearGradient id="Orange_Yellow-3" x1="119.93" y1="122" x2="180.65" y2="122" gradientTransform="translate(18.82 200) rotate(-66.62)" xlink:href="#radial-gradient-3"/></defs><title>Asset 8</title><g id="Layer_2" data-name="Layer 2"><g id="Layer_5" data-name="Layer 5"><path class="cls-1" d="M81.67,90.86c0-.59-.93-1.16-2.62-1.65a27.15,27.15,0,0,0-7.44-.88A24.67,24.67,0,0,0,60,91.21a19.37,19.37,0,0,0-5.92,5,24.77,24.77,0,0,0-3.63,7c-.81,2.27-1.43,4.22-2.15,5.75a14.11,14.11,0,0,1-1.12,2,7.56,7.56,0,0,1-4.6,3,8.28,8.28,0,0,1-3.35.09,12.15,12.15,0,0,1-5.06-2.46c-1.19-.91-2-1.62-2.54-1.42s-.9,1.31-.3,3.24a11.2,11.2,0,0,0,5.71,6.37,13.79,13.79,0,0,0,13.38-.84,14.79,14.79,0,0,0,3.16-2.71,19.77,19.77,0,0,0,2.29-3.36,50,50,0,0,0,2.73-6.63,21.32,21.32,0,0,1,2.28-4.88A13.26,13.26,0,0,1,64.2,98a26.5,26.5,0,0,1,8.23-3.63c2.68-.75,5-1.26,6.68-1.82S81.68,91.46,81.67,90.86Z"/><circle class="cls-2" cx="116.99" cy="75.71" r="30.36"/><path class="cls-3" d="M144.86,87.75A93.87,93.87,0,0,0,128,67.84,83.34,83.34,0,0,0,99.39,51.13"/><path class="cls-4" d="M133,101.5a146.6,146.6,0,0,1-21-15.09A144.2,144.2,0,0,1,89.77,62.18"/><rect class="cls-5" x="20.16" y="46.63" width="42.74" height="43.93"/><rect class="cls-6" x="0.44" y="76.77" width="42.74" height="43.93"/><polyline class="cls-7" points="62.9 88.73 43.19 120.7 43.19 76.77 62.9 44.8 20.16 44.8 0.44 76.77"/><circle class="cls-2" cx="214.12" cy="76.62" r="30.36"/><path class="cls-3" d="M242,88.66a94.42,94.42,0,0,0-16.84-19.91A83.59,83.59,0,0,0,196.52,52"/><path class="cls-4" d="M230.13,102.41a145.49,145.49,0,0,1-20.95-15.09,143.88,143.88,0,0,1-22.29-24.23"/><circle class="cls-8" cx="160.25" cy="138.35" r="24.95"/><path class="cls-9" d="M180.44,123.68a77.25,77.25,0,0,0-21.13,3.57,68.68,68.68,0,0,0-23.8,13.25"/><path class="cls-10" d="M185.19,137.82a119.83,119.83,0,0,1-19.43,8.5,118.59,118.59,0,0,1-26.47,5.62"/><circle class="cls-11" cx="133.95" cy="117.05" r="30.36"/><path class="cls-3" d="M161.82,129.1A94.15,94.15,0,0,0,145,109.18a83.45,83.45,0,0,0-28.63-16.7"/><path class="cls-4" d="M150,142.85a146.6,146.6,0,0,1-21-15.09,143.83,143.83,0,0,1-22.28-24.24"/><circle class="cls-12" cx="180.91" cy="38.56" r="24.95"/><path class="cls-9" d="M201.09,23.9A77.37,77.37,0,0,0,180,27.47a68.54,68.54,0,0,0-23.8,13.25"/><path class="cls-10" d="M205.85,38a121.25,121.25,0,0,1-19.44,8.5,118.28,118.28,0,0,1-26.47,5.61"/><circle class="cls-13" cx="156.47" cy="70.57" r="30.36"/><path class="cls-3" d="M184.34,82.62A94.17,94.17,0,0,0,167.5,62.71,83.34,83.34,0,0,0,138.87,46"/><path class="cls-4" d="M172.48,96.37a146,146,0,0,1-20.95-15.09A143.52,143.52,0,0,1,129.24,57"/><circle class="cls-14" cx="197.2" cy="132.81" r="24.95"/><path class="cls-9" d="M217.39,118.14a77,77,0,0,0-21.13,3.58A68.61,68.61,0,0,0,172.46,135"/><path class="cls-10" d="M222.14,132.28a119,119,0,0,1-19.43,8.5,118.48,118.48,0,0,1-26.47,5.62"/><circle class="cls-15" cx="190.43" cy="110.45" r="30.36"/><path class="cls-3" d="M218.3,122.5a93.9,93.9,0,0,0-16.84-19.92,83.45,83.45,0,0,0-28.63-16.7"/><path class="cls-4" d="M206.44,136.24a146.46,146.46,0,0,1-20.95-15.08,144.6,144.6,0,0,1-22.28-24.24"/><path class="cls-16" d="M252.89,46.71c0,14.63-5.41,29.72-11,42.57-11.65,32-24.62,64.52-46.25,92.15L196,181l-51.65-17.43-51.44-28.9c-16.71-7.22-17.42-42.79-1.58-79.44C105.21,23.16,127.15.88,143.61.65a16.21,16.21,0,0,1,6.68,1.29l55.43,17.51,46.8,28.28"/></g></g></svg>