<svg xmlns="http://www.w3.org/2000/svg" viewBox="0 0 285.37 395.08"><defs><style>.cls-1{fill:#231f20;}.cls-2,.cls-3{fill:#58595b;}.cls-2{stroke:#58595b;stroke-miterlimit:10;}</style></defs><title>Asset 7</title><g id="Layer_2" data-name="Layer 2"><g id="Layer_6" data-name="Layer 6"><polygon class="cls-1" points="261.95 0 268.46 0 281.47 4.55 285.37 7.81 275.61 24.07 257.4 16.92 261.95 0"/><polyline class="cls-2" points="103.85 359.13 257.4 16.92 275.61 24.07 113.61 379.95 81.08 389.71 63.52 393.61 38.14 393.61 18.63 393.61 1.06 393.61 1.06 383.86 1.06 370.84 7.24 350.95 13.38 348.42 60.49 356.53 111.01 354.58 82.38 358.48"/><path class="cls-3" d="M101.54,355.71a6.56,6.56,0,0,0-3.26.29,12.83,12.83,0,0,0-7.2,5.21l-1.61,2.39,2.38-1.68a23.59,23.59,0,0,1,9.72-4l-.31-1.3-13.41,4.2-4.4,1.37,4.6,0h.11a35.32,35.32,0,0,0,21.1-6.44l-.61-1a68.46,68.46,0,0,1-9.86,4.53A28.15,28.15,0,0,0,95,360.78c0,.11,1.5-.11,4-.82a54.58,54.58,0,0,0,10.21-4.14l-.61-1a35.91,35.91,0,0,1-9,4.31,35.23,35.23,0,0,1-11.39,1.63h-.11l.19,1.41,13.38-4.29-.31-1.3a23.93,23.93,0,0,0-10.13,4.46l.76.72a12.76,12.76,0,0,1,6.48-5.21C100.38,355.88,101.55,355.85,101.54,355.71Z" transform="translate(-0.3)"/><path class="cls-3" d="M101,356.65c.17.13.5,0,.74.29s.63.88.43,1.19a3.6,3.6,0,0,1-1.3,1.33c-.48.34-.79.62-.72.81s.47.26,1.12.13a3.84,3.84,0,0,0,1.13-.45,2.71,2.71,0,0,0,1.1-1.26,1.81,1.81,0,0,0,.13-1.05,2.24,2.24,0,0,0-.35-.83,2,2,0,0,0-1.19-.83,1,1,0,0,0-1,.27C100.93,356.44,101,356.59,101,356.65Z" transform="translate(-0.3)"/><path class="cls-3" d="M91.79,370.68c9.65,0,9.67-15,0-15s-9.67,15,0,15Z" transform="translate(-0.3)"/><path class="cls-3" d="M100.46,369.81c9.66,0,9.67-15,0-15s-9.66,15,0,15Z" transform="translate(-0.3)"/><path class="cls-1" d="M107.72,355.54c-.08-.67-8.32,0-21.59,0A284,284,0,0,1,34.66,351c-5-.88-9.78-2-14.42-3l-6.89-1.73a8,8,0,0,0-4.57.1,4.78,4.78,0,0,0-2.26,1.83,7.5,7.5,0,0,0-.85,2.09A159.39,159.39,0,0,0,.76,373.38a57.5,57.5,0,0,0,.18,16.06,28.54,28.54,0,0,0,1,4.25c.33.94.57,1.42.72,1.38s.19-.57.14-1.55-.13-2.42-.22-4.25A76.2,76.2,0,0,1,3.8,373.81a202,202,0,0,1,5.71-22.49,3.39,3.39,0,0,1,.4-1,.63.63,0,0,1,.33-.24,4.44,4.44,0,0,1,2.19.14l6.79,1.81c4.7,1.16,9.59,2.29,14.65,3.19a221.09,221.09,0,0,0,52.35,3.38C99.64,357.84,107.79,356.06,107.72,355.54Z" transform="translate(-0.3)"/></g></g></svg>