<svg xmlns="http://www.w3.org/2000/svg" viewBox="0 0 32.66 41.76"><defs><style>.cls-1{fill:#231f20;}.cls-2{fill:#b2b6ba;}.cls-2,.cls-3{stroke:#231f20;stroke-miterlimit:10;}.cls-3{fill:#8c959d;}</style></defs><title>Asset 9</title><g id="Layer_2" data-name="Layer 2"><g id="Layer_1-2" data-name="Layer 1"><path class="cls-1" d="M12,0C10.33,0,8.9,3.48,8.78,7.76s1.11,7.83,2.75,7.92,3.06-3.38,3.19-7.75S13.61,0,12,0Z" transform="translate(0 -0.01)"/><circle class="cls-2" cx="16.33" cy="25.43" r="15.83"/><circle class="cls-3" cx="16.27" cy="26.21" r="7.51"/><path class="cls-1" d="M21,.72c-1.53.07-2.2,6.81-2.65,14.8-.13,2-.25,3.87-.42,5.5a22.51,22.51,0,0,1-.67,3.92c-.14.47-.21.62-.25.82S17,26,16.88,26a1,1,0,0,1-.15.11l-.2,0a7,7,0,0,1-.82.14,1,1,0,0,0-.55.3.64.64,0,0,0,0,.61,1.83,1.83,0,0,0,.73.91,3.27,3.27,0,0,0,.36.25,3.39,3.39,0,0,0,.51.17,2.7,2.7,0,0,0,1.31,0A4.41,4.41,0,0,0,20.46,27a13.2,13.2,0,0,0,2.33-5.06,33.58,33.58,0,0,0,.91-6.06,43.62,43.62,0,0,0-.63-10.8C22.52,2.33,21.76.7,21,.72Z" transform="translate(0 -0.01)"/></g></g></svg>