<svg xmlns="http://www.w3.org/2000/svg" xmlns:xlink="http://www.w3.org/1999/xlink" viewBox="0 0 88.24 71.45"><defs><style>.cls-1{fill:#8b5e3c;}.cls-1,.cls-10,.cls-11,.cls-12,.cls-13,.cls-14,.cls-15,.cls-2,.cls-3,.cls-4,.cls-5,.cls-6,.cls-7,.cls-8,.cls-9{stroke:#231f20;stroke-miterlimit:10;}.cls-2{fill:#f15a29;}.cls-10,.cls-12,.cls-13,.cls-2,.cls-9{stroke-width:0.32px;}.cls-3,.cls-4,.cls-6,.cls-7{fill:none;}.cls-3{stroke-width:0.34px;}.cls-4{stroke-width:0.35px;}.cls-11,.cls-5,.cls-8{stroke-width:0.26px;}.cls-5{fill:url(#radial-gradient);}.cls-6{stroke-width:0.28px;}.cls-7{stroke-width:0.29px;}.cls-8{fill:url(#radial-gradient-2);}.cls-9{fill:url(#Orange_Yellow);}.cls-10{fill:url(#Orange_Yellow-2);}.cls-11{fill:url(#radial-gradient-3);}.cls-12{fill:url(#Orange_Yellow-3);}.cls-13{fill:url(#Orange_Yellow-4);}.cls-14{fill:#939598;stroke-width:0.42px;opacity:0.43;}.cls-15{fill:#ed1c24;}</style><radialGradient id="radial-gradient" cx="-950.62" cy="363.43" r="8.03" gradientTransform="translate(111.75 -983.06) rotate(-66.62)" gradientUnits="userSpaceOnUse"><stop offset="0" stop-color="#fff33b"/><stop offset="0.04" stop-color="#fee72e"/><stop offset="0.12" stop-color="#fed51b"/><stop offset="0.2" stop-color="#fdca10"/><stop offset="0.28" stop-color="#fdc70c"/><stop offset="0.67" stop-color="#f3903f"/><stop offset="0.89" stop-color="#ed683c"/><stop offset="1" stop-color="#e93e3a"/></radialGradient><radialGradient id="radial-gradient-2" cx="-936.75" cy="354.96" r="8.03" xlink:href="#radial-gradient"/><linearGradient id="Orange_Yellow" x1="-1026.88" y1="547.2" x2="-1007.35" y2="547.2" gradientTransform="translate(542.84 -1010.35) rotate(-35.99)" xlink:href="#radial-gradient"/><linearGradient id="Orange_Yellow-2" x1="-952.17" y1="344.06" x2="-932.64" y2="344.06" gradientTransform="translate(111.75 -983.06) rotate(-66.62)" xlink:href="#radial-gradient"/><radialGradient id="radial-gradient-3" cx="-949.98" cy="356.08" r="8.03" xlink:href="#radial-gradient"/><linearGradient id="Orange_Yellow-3" x1="-967.97" y1="324.86" x2="-948.44" y2="324.86" gradientTransform="translate(111.75 -983.06) rotate(-66.62)" xlink:href="#radial-gradient"/><linearGradient id="Orange_Yellow-4" x1="-965.99" y1="350.46" x2="-946.45" y2="350.46" gradientTransform="translate(111.75 -983.06) rotate(-66.62)" xlink:href="#radial-gradient"/></defs><title>Asset 12</title><g id="Layer_2" data-name="Layer 2"><g id="Layer_1-2" data-name="Layer 1"><polygon class="cls-1" points="1.11 19.82 23.06 27.66 26.89 23.26 4.59 15.02 2.39 18.98 1.11 19.82"/><polygon class="cls-1" points="18.14 4.55 37.75 17.13 42.48 13.71 22.61 0.65 19.57 4.02 18.14 4.55"/><circle class="cls-1" cx="76.03" cy="59.59" r="11.36"/><circle class="cls-2" cx="41.7" cy="14.14" r="9.77"/><path class="cls-3" d="M50.67,18a30.28,30.28,0,0,0-5.42-6.41A27,27,0,0,0,36,6.23"/><path class="cls-4" d="M46.85,22.44a46.88,46.88,0,0,1-6.74-4.86,46.5,46.5,0,0,1-7.17-7.79"/><circle class="cls-2" cx="74.69" cy="27.4" r="9.77"/><path class="cls-3" d="M83.65,31.28a30.23,30.23,0,0,0-5.42-6.41A26.64,26.64,0,0,0,69,19.5"/><path class="cls-4" d="M79.84,35.7a47,47,0,0,1-6.74-4.85,46.09,46.09,0,0,1-7.17-7.8"/><circle class="cls-5" cx="68.19" cy="33.72" r="8.03"/><path class="cls-6" d="M74.69,29a25.55,25.55,0,0,0-6.8,1.15,22.11,22.11,0,0,0-7.66,4.27"/><path class="cls-7" d="M76.22,33.55A38.75,38.75,0,0,1,70,36.29a38.19,38.19,0,0,1-8.51,1.8"/><circle class="cls-8" cx="65.93" cy="17.63" r="8.03"/><path class="cls-6" d="M72.42,12.91a25.55,25.55,0,0,0-6.8,1.15A22,22,0,0,0,58,18.33"/><path class="cls-7" d="M74,17.46A39,39,0,0,1,67.7,20.2,38.37,38.37,0,0,1,59.18,22"/><circle class="cls-9" cx="41.35" cy="30.06" r="9.77"/><path class="cls-3" d="M47.09,38a29.83,29.83,0,0,0-1.4-8.27,26.8,26.8,0,0,0-5.18-9.32"/><path class="cls-4" d="M41.55,39.82a46.82,46.82,0,0,1-5.52-18"/><circle class="cls-10" cx="53.67" cy="18.5" r="9.77"/><path class="cls-3" d="M62.64,22.38A30.53,30.53,0,0,0,57.22,16,26.73,26.73,0,0,0,48,10.6"/><path class="cls-4" d="M58.82,26.8A47.53,47.53,0,0,1,52.08,22a46.51,46.51,0,0,1-7.17-7.8"/><circle class="cls-11" cx="61.7" cy="30.23" r="8.03"/><path class="cls-6" d="M68.19,25.51a24.76,24.76,0,0,0-6.8,1.15,22.06,22.06,0,0,0-7.65,4.26"/><path class="cls-7" d="M69.72,30.06a38.16,38.16,0,0,1-6.25,2.73A37.9,37.9,0,0,1,55,34.6"/><circle class="cls-12" cx="29.78" cy="25.39" r="9.77"/><path class="cls-3" d="M38.74,29.26a30.17,30.17,0,0,0-5.41-6.4,26.87,26.87,0,0,0-9.21-5.38"/><path class="cls-4" d="M34.93,33.68a46.2,46.2,0,0,1-6.74-4.85A45.71,45.71,0,0,1,21,21"/><circle class="cls-13" cx="54.06" cy="33.72" r="9.77"/><path class="cls-3" d="M63,37.6a30.23,30.23,0,0,0-5.42-6.41,26.64,26.64,0,0,0-9.21-5.37"/><path class="cls-4" d="M59.21,42a47.49,47.49,0,0,1-6.73-4.85,46.58,46.58,0,0,1-7.18-7.8"/><path class="cls-14" d="M35.89.69C27.79,2.46,23.69,12,22.3,15.15c-.6,1.39-5.76,13.66-.86,18.51,1,1,1.09.32,8.09,2.89,4.77,1.74,6,2.51,10.12,3.76,2.43.72,2.08.48,5.5,1.44,7.51,2.12,7.37,2.79,9.25,2.6,4-.39,4.78-3.44,8.68-3.18,2.19.15,2.26,1.15,4.62,1.45,1.48.19,3.53.06,9-2.89,5.28-2.87,7.93-4.31,9.25-6.36a13.44,13.44,0,0,0,1.16-12.15c-.47-1.07-1.38-2.73-7.52-7.23-5.78-4.23-8.67-6.34-12.44-7.8C61.38,4,60.58,5.54,50.35,3.58,40.28,1.65,39.73-.15,35.89.69Z"/><path class="cls-15" d="M85.41,34.87,77.1,53.33h0a4.41,4.41,0,0,1-4.63,2.9l-53.4-6L18,29.46a211.24,211.24,0,0,0,28.89,8.18c10.68,2.22,21.89,3.59,32.42.73,3.39-.92,7.19-2.84,7.07-6.75"/></g></g></svg>